<?xml version="1.0" standalone="no"?>
<!DOCTYPE svg PUBLIC "-//W3C//DTD SVG 20010904//EN"
 "http://www.w3.org/TR/2001/REC-SVG-20010904/DTD/svg10.dtd">
<svg version="1.0" xmlns="http://www.w3.org/2000/svg"
 width="425.000000pt" height="425.000000pt" viewBox="0 0 425.000000 425.000000"
 preserveAspectRatio="xMidYMid meet">
<metadata>
Created by potrace 1.14, written by Peter Selinger 2001-2017
</metadata>
<g transform="translate(0.000000,425.000000) scale(0.100000,-0.100000)"
fill="#000000" stroke="none">
<path d="M2092 4058 c-17 -51 -89 -273 -160 -493 -72 -220 -171 -524 -220
-675 l-90 -275 -811 -5 -812 -5 83 -61 c46 -33 324 -235 618 -449 625 -453
604 -438 608 -440 3 -2 -268 -837 -276 -850 -4 -5 -8 -18 -9 -28 -3 -15 -71
-229 -179 -556 -18 -58 -32 -106 -30 -108 2 -2 30 16 62 39 32 24 69 50 81 58
12 8 153 111 315 229 161 118 358 262 438 319 80 58 192 140 250 182 58 42
119 86 136 98 l31 21 243 -177 c133 -97 252 -184 263 -192 12 -8 197 -142 411
-297 214 -156 391 -281 393 -280 1 2 -13 50 -31 108 -82 251 -182 559 -286
879 -62 190 -127 390 -146 445 l-34 100 33 28 c17 15 158 118 312 230 593 429
763 553 863 626 l103 76 -812 5 -812 5 -13 40 c-7 22 -73 227 -148 455 -74
228 -180 556 -236 728 -56 171 -103 312 -105 312 -2 0 -17 -42 -33 -92z"/>
</g>
</svg>
